<?xml version="1.0" encoding="UTF-8" standalone="no"?>
<!-- Generator: Adobe Illustrator 15.0.0, SVG Export Plug-In . SVG Version: 6.00 Build 0)  -->

<svg
   xmlns:dc="http://purl.org/dc/elements/1.1/"
   xmlns:cc="http://creativecommons.org/ns#"
   xmlns:rdf="http://www.w3.org/1999/02/22-rdf-syntax-ns#"
   xmlns:svg="http://www.w3.org/2000/svg"
   xmlns="http://www.w3.org/2000/svg"
   xmlns:sodipodi="http://sodipodi.sourceforge.net/DTD/sodipodi-0.dtd"
   xmlns:inkscape="http://www.inkscape.org/namespaces/inkscape"
   version="1.1"
   id="Layer_1"
   x="0px"
   y="0px"
   width="100px"
   height="100px"
   viewBox="0 0 100 100"
   enable-background="new 0 0 100 100"
   xml:space="preserve"
   inkscape:version="0.91 r13725"
   sodipodi:docname="ball.svg"><metadata
     id="metadata19"><rdf:RDF><cc:Work
         rdf:about=""><dc:format>image/svg+xml</dc:format><dc:type
           rdf:resource="http://purl.org/dc/dcmitype/StillImage" /></cc:Work></rdf:RDF></metadata><defs
     id="defs17" /><sodipodi:namedview
     pagecolor="#ffffff"
     bordercolor="#666666"
     borderopacity="1"
     objecttolerance="10"
     gridtolerance="10"
     guidetolerance="10"
     inkscape:pageopacity="0"
     inkscape:pageshadow="2"
     inkscape:window-width="1281"
     inkscape:window-height="760"
     id="namedview15"
     showgrid="false"
     inkscape:zoom="2.36"
     inkscape:cx="49.576271"
     inkscape:cy="50"
     inkscape:window-x="0"
     inkscape:window-y="0"
     inkscape:window-maximized="0"
     inkscape:current-layer="Layer_1" /><circle
     fill="#3678BC"
     cx="50"
     cy="49.989"
     r="47.491"
     id="circle3"
     style="fill:#5fb45d;fill-opacity:1" /><path
     fill="#3678BC"
     d="M50,98.989c-13.088,0-25.393-5.098-34.648-14.352C6.096,75.383,1,63.077,1,49.989S6.097,24.596,15.352,15.34  C24.607,6.086,36.912,0.989,50,0.989S75.394,6.086,84.648,15.34C93.902,24.596,99,36.9,99,49.989s-5.098,25.394-14.352,34.648  C75.395,93.892,63.088,98.989,50,98.989z M50,4.007c-12.282,0-23.829,4.783-32.514,13.468C8.801,26.159,4.019,37.707,4.019,49.989  c0,12.283,4.783,23.83,13.467,32.513c8.685,8.687,20.232,13.47,32.514,13.47c12.283,0,23.829-4.783,32.514-13.47  c8.687-8.684,13.47-20.23,13.47-32.513c0-12.282-4.783-23.829-13.47-32.514C73.829,8.79,62.283,4.007,50,4.007z"
     id="path5"
     style="fill:#5fb45d;fill-opacity:1" /><g
     id="g7"><path
       fill="#FFFFFF"
       d="M50,89.797c-21.95,0-39.809-17.856-39.809-39.808h3.019c0,20.287,16.504,36.791,36.79,36.791V89.797z"
       id="path9" /><path
       fill="#FFFFFF"
       d="M53.184,89.671l-0.239-3.008c3.012-0.239,5.981-0.846,8.829-1.807l0.965,2.859   C59.655,88.756,56.442,89.413,53.184,89.671z"
       id="path11" /></g><path
     fill="#497097"
     d="M51.509,1.115c-2.608,0-5.165,0.225-7.66,0.642C66.434,5.533,83.68,25.717,83.68,50.063  c0,24.343-17.246,44.529-39.831,48.306c2.494,0.415,5.051,0.642,7.66,0.642C77.737,99.011,99,77.096,99,50.063  C99,23.029,77.737,1.115,51.509,1.115z"
     id="path13"
     style="fill:#4c904a;fill-opacity:1" /></svg>