<?xml version="1.0" encoding="UTF-8" standalone="no"?>
<svg
   xmlns:dc="http://purl.org/dc/elements/1.1/"
   xmlns:cc="http://creativecommons.org/ns#"
   xmlns:rdf="http://www.w3.org/1999/02/22-rdf-syntax-ns#"
   xmlns:svg="http://www.w3.org/2000/svg"
   xmlns="http://www.w3.org/2000/svg"
   xmlns:sodipodi="http://sodipodi.sourceforge.net/DTD/sodipodi-0.dtd"
   xmlns:inkscape="http://www.inkscape.org/namespaces/inkscape"
   sodipodi:docname="star.svg"
   inkscape:version="1.0beta2 (2b71d25, 2019-12-03)"
   xml:space="preserve"
   style="enable-background:new 0 0 512.001 512.001;"
   viewBox="0 0 512.001 512.001"
   y="0px"
   x="0px"
   id="Capa_1"
   version="1.1"><metadata
     id="metadata41"><rdf:RDF><cc:Work
         rdf:about=""><dc:format>image/svg+xml</dc:format><dc:type
           rdf:resource="http://purl.org/dc/dcmitype/StillImage" /><dc:title></dc:title></cc:Work></rdf:RDF></metadata><defs
     id="defs39" /><sodipodi:namedview
     inkscape:document-rotation="0"
     inkscape:current-layer="Capa_1"
     inkscape:window-maximized="1"
     inkscape:window-y="23"
     inkscape:window-x="0"
     inkscape:cy="256.00049"
     inkscape:cx="256.00049"
     inkscape:zoom="0.46093662"
     showgrid="false"
     id="namedview37"
     inkscape:window-height="1395"
     inkscape:window-width="2560"
     inkscape:pageshadow="2"
     inkscape:pageopacity="0"
     guidetolerance="10"
     gridtolerance="10"
     objecttolerance="10"
     borderopacity="1"
     bordercolor="#666666"
     pagecolor="#ffffff" /><path
     inkscape:connector-curvature="0"
     id="path3"
     d="M 499.92,188.26 334.081,172.879 268.205,19.91 c -4.612,-10.711 -19.799,-10.711 -24.411,0 L 177.919,172.88 12.08,188.26 C 0.468,189.337 -4.225,203.78 4.536,211.476 L 129.662,321.398 93.044,483.874 c -2.564,11.376 9.722,20.302 19.749,14.348 L 256,413.188 399.207,498.222 c 10.027,5.954 22.314,-2.972 19.75,-14.348 L 382.338,321.398 507.464,211.476 c 8.761,-7.696 4.068,-22.139 -7.544,-23.216 z"
     style="fill:#ffc850;fill-opacity:1" /><path
     inkscape:connector-curvature="0"
     id="path5"
     d="m 244.57272,19.91 c 4.612,-10.711 19.799,-10.711 24.411,0 l 65.875,152.97 165.839,15.38 c 11.612,1.077 16.305,15.52 7.544,23.216 l -125.126,109.922 36.618,162.476 c 2.564,11.376 -9.722,20.302 -19.749,14.348 l -31.963,-18.979 c -4.424,-182.101 -89.034,-310.338 -156.022,-383.697 l 32.573,-75.636 z"
     style="fill:#ffb40d;fill-opacity:0.99607843" /><g
     id="g7" /><g
     id="g9" /><g
     id="g11" /><g
     id="g13" /><g
     id="g15" /><g
     id="g17" /><g
     id="g19" /><g
     id="g21" /><g
     id="g23" /><g
     id="g25" /><g
     id="g27" /><g
     id="g29" /><g
     id="g31" /><g
     id="g33" /><g
     id="g35" /></svg>
